<svg xmlns="http://www.w3.org/2000/svg" width="256" height="256" viewBox="0 0 256 256"><path d="M97.8 149.5H84.1L65.9 171l2.9 4.2 35-18.4-6-7.3zm-25.3-14.9h113.2v10.76H72.5zm99-4.1a52 52 0 0 0 2.4-15.7 44.8 44.8 0 0 0-89.6 0c0 5.3.4 10.9 2.5 15.7zM87 170.4h28.2l-8.5-10.3L87 170.4zm71.2-20.9l-6.2 7.3 35.2 18.4 2.9-4-18.2-21.7h-13.7z"/><path d="M128 2L18.9 65v126L128 254l109.1-63V65zm66.2 170.3l-4.7 6.8a2.3 2.3 0 0 1-2.7.6l-10-5.1H79l-10 5.1a2.4 2.4 0 0 1-2.7-.6l-4.7-6.8a2.3 2.3 0 0 1 .2-2.5L79 149.5h-8.5a1.9 1.9 0 0 1-2.1-2.1v-14.9a1.9 1.9 0 0 1 2.1-2h12a56.3 56.3 0 0 1-2.3-15.7 49.1 49.1 0 0 1 49-48.9c26.7 0 48.9 22.2 48.9 48.9a49.8 49.8 0 0 1-2.3 15.7h12a2 2 0 0 1 2.1 2v14.9a2 2 0 0 1-2.1 2.1h-10.6l17 20.3a2.3 2.3 0 0 1 0 2.5z"/><path d="M140.8 170.4H169l-19.7-10.3-8.5 10.3zm-37.6-20.9l17.3 20.9h14.9l17.4-20.9h-49.6z"/></svg>