<svg xmlns="http://www.w3.org/2000/svg" width="256" height="256" viewBox="0 0 256 256"><path d="M70.3 147.4H126v22.97H70.3zm55.6-19.6V86l-29.8 41.8h29.8zm4.2-46.2v46.2h57.1a61.6 61.6 0 0 0-57.1-46.2zm0 65.8h9.3v22.97h-9.3zm-6.2-65.6c-26.5 1.7-48.7 20.9-55.1 46H91z"/><path d="M128 2L18.9 65v126L128 254l109.1-63V65zm89.2 145.4h-27.3v25.1a2.1 2.1 0 0 1-2.1 2.1H68.2a2 2 0 0 1-2.1-2.1v-25.1H38.8a2.1 2.1 0 1 1 0-4.1h15.5v-13.4a2 2 0 0 1 2.1-2.1h8.1a65.6 65.6 0 0 1 63.3-50.3c.2-.2.4-.2.8 0a65.3 65.3 0 0 1 62.9 50.3h8.1a2 2 0 0 1 2.1 2.1v13.4h15.5a2.1 2.1 0 1 1 0 4.1z"/><path d="M58.5 131.9h139.1v11.38H58.5zm85 15.5h42.2v22.97h-42.2z"/></svg>