<svg xmlns="http://www.w3.org/2000/svg" width="256" height="256" viewBox="0 0 256 256"><path d="M96.5 157.4h20.7v13.04H96.5zm24.9 0h13.2v13.04h-13.2zm17.4 0h20.7v13.04h-20.7zM128 71.1c-24.2 0-44.5 14.7-45.5 41.4h91c-1-26.7-21.3-41.4-45.5-41.4zm-48.8 86.3h13.2v13.04H79.2zm-12.5-4.2h122.6v-36.6H66.7zm60.3-14h50.5a2.1 2.1 0 0 1 0 4.1H127a2.1 2.1 0 1 1 0-4.1z"/><path d="M128 2L18.9 65v126L128 254l109.1-63V65zm65.4 153.3a1.9 1.9 0 0 1-2.1 2.1H181v13h10.3a2.1 2.1 0 0 1 0 4.2H64.7a2.1 2.1 0 0 1 0-4.2H75v-13H64.7a1.9 1.9 0 0 1-2.1-2.1v-40.8a1.9 1.9 0 0 1 2.1-2h13.6c1.1-29.4 23-45.6 49.7-45.6s48.6 16.2 49.7 45.6h13.6a1.9 1.9 0 0 1 2.1 2z"/><path d="M163.6 157.4h13.2v13.04h-13.2z"/></svg>